<svg width="12" height="13" viewBox="0 0 12 13" fill="none" xmlns="http://www.w3.org/2000/svg">
<path id="Vector" d="M1.33333 12.0736C1.14444 12.0736 0.986 12.0096 0.858 11.8816C0.730445 11.7541 0.666667 11.5958 0.666667 11.4069V10.7403H0V8.07361C0 7.88472 0.0640001 7.72628 0.192 7.59828C0.319556 7.47072 0.477778 7.40694 0.666667 7.40694H1.33333V2.74028C1.33333 2.00694 1.59444 1.37916 2.11667 0.856942C2.63889 0.33472 3.26667 0.0736084 4 0.0736084C4.73333 0.0736084 5.36111 0.33472 5.88333 0.856942C6.40556 1.37916 6.66667 2.00694 6.66667 2.74028V9.40694C6.66667 9.77361 6.79733 10.0876 7.05867 10.3489C7.31956 10.6098 7.63333 10.7403 8 10.7403C8.36667 10.7403 8.68067 10.6098 8.942 10.3489C9.20289 10.0876 9.33333 9.77361 9.33333 9.40694V4.74028H8.66667C8.47778 4.74028 8.31956 4.67628 8.192 4.54828C8.064 4.42072 8 4.2625 8 4.07361V1.40694H8.66667V0.740275C8.66667 0.551386 8.73067 0.392942 8.85867 0.264942C8.98622 0.137386 9.14444 0.0736084 9.33333 0.0736084H10.6667C10.8556 0.0736084 11.0138 0.137386 11.1413 0.264942C11.2693 0.392942 11.3333 0.551386 11.3333 0.740275V1.40694H12V4.07361C12 4.2625 11.936 4.42072 11.808 4.54828C11.6804 4.67628 11.5222 4.74028 11.3333 4.74028H10.6667V9.40694C10.6667 10.1403 10.4056 10.7681 9.88333 11.2903C9.36111 11.8125 8.73333 12.0736 8 12.0736C7.26667 12.0736 6.63889 11.8125 6.11667 11.2903C5.59444 10.7681 5.33333 10.1403 5.33333 9.40694V2.74028C5.33333 2.37361 5.20289 2.05983 4.942 1.79894C4.68067 1.53761 4.36667 1.40694 4 1.40694C3.63333 1.40694 3.31956 1.53761 3.05867 1.79894C2.79733 2.05983 2.66667 2.37361 2.66667 2.74028V7.40694H3.33333C3.52222 7.40694 3.68067 7.47072 3.80867 7.59828C3.93622 7.72628 4 7.88472 4 8.07361V10.7403H3.33333V11.4069C3.33333 11.5958 3.26956 11.7541 3.142 11.8816C3.014 12.0096 2.85556 12.0736 2.66667 12.0736H1.33333Z" fill="#E96E2B"/>
</svg>
