<svg width="31" height="24" viewBox="0 0 31 24" fill="none" xmlns="http://www.w3.org/2000/svg">
<g id="Frame">
<g id="Group 919">
<path id="Vector" d="M20.991 17.9375V15.9286H19.6518V17.9375H17.6428V19.2768H19.6518V21.2857H20.991V19.2768H23V17.9375" fill="url(#paint0_linear_156_6)"/>
<path id="Subtract" fill-rule="evenodd" clip-rule="evenodd" d="M16.7465 17.7792H9.83673V5.50649H19.0204V14.643C19.5713 14.2863 20.1918 14.0279 20.8571 13.8929V3.75325C20.8571 2.78019 20.0306 2 19.0204 2H9.83673C8.81735 2 8 2.78019 8 3.75325V19.5325C8 19.9975 8.19351 20.4434 8.53797 20.7722C8.88242 21.101 9.3496 21.2857 9.83673 21.2857H17.0172C16.7305 20.6295 16.5714 19.9048 16.5714 19.1429C16.5714 18.6716 16.6323 18.2146 16.7465 17.7792Z" fill="url(#paint1_linear_156_6)"/>
</g>
</g>
<defs>
<linearGradient id="paint0_linear_156_6" x1="20.3214" y1="15.9286" x2="20.3214" y2="21.2857" gradientUnits="userSpaceOnUse">
<stop stop-color="#60A5FA"/>
<stop offset="1" stop-color="#3B82F6"/>
</linearGradient>
<linearGradient id="paint1_linear_156_6" x1="14.4286" y1="2" x2="14.4286" y2="21.2857" gradientUnits="userSpaceOnUse">
<stop stop-color="#60A5FA"/>
<stop offset="1" stop-color="#3B82F6"/>
</linearGradient>
</defs>
</svg>
