<svg width="30" height="24" viewBox="0 0 30 24" fill="none" xmlns="http://www.w3.org/2000/svg">
<g id="Frame">
<g id="Group 60">
<path id="Vector" d="M12.556 12.12C14.476 7.896 19.456 6.036 23.68 7.956C27.904 9.876 29.764 14.856 27.844 19.08C26.488 22.08 23.5 24 20.2 24C16.96 24 13.996 22.128 12.604 19.2H1V16.8C1.072 15.432 2.008 14.316 3.808 13.416C5.608 12.516 7.864 12.048 10.6 12C11.284 12 11.932 12.06 12.556 12.12ZM10.6 0C11.944 0.036 13.072 0.504 13.972 1.404C14.872 2.304 15.316 3.432 15.316 4.8C15.316 6.168 14.872 7.296 13.972 8.196C13.072 9.096 11.944 9.54 10.6 9.54C9.256 9.54 8.128 9.096 7.228 8.196C6.328 7.296 5.884 6.168 5.884 4.8C5.884 3.432 6.328 2.304 7.228 1.404C8.128 0.504 9.256 0.036 10.6 0ZM20.2 21.6C21.7913 21.6 23.3174 20.9679 24.4426 19.8426C25.5679 18.7174 26.2 17.1913 26.2 15.6C26.2 14.0087 25.5679 12.4826 24.4426 11.3574C23.3174 10.2321 21.7913 9.6 20.2 9.6C18.6087 9.6 17.0826 10.2321 15.9574 11.3574C14.8321 12.4826 14.2 14.0087 14.2 15.6C14.2 17.1913 14.8321 18.7174 15.9574 19.8426C17.0826 20.9679 18.6087 21.6 20.2 21.6Z" fill="url(#paint0_linear_54_49)"/>
<path id="Vector_2" d="M21.1001 14.7V12H19.3001V14.7H16.6001V16.5H19.3001V19.2H21.1001V16.5H23.8001V14.7" fill="url(#paint1_linear_54_49)"/>
</g>
</g>
<defs>
<linearGradient id="paint0_linear_54_49" x1="14.8002" y1="0" x2="14.8002" y2="24" gradientUnits="userSpaceOnUse">
<stop stop-color="#FB923C"/>
<stop offset="1" stop-color="#F97316"/>
</linearGradient>
<linearGradient id="paint1_linear_54_49" x1="20.2001" y1="12" x2="20.2001" y2="19.2" gradientUnits="userSpaceOnUse">
<stop stop-color="#FB923C"/>
<stop offset="1" stop-color="#F97316"/>
</linearGradient>
</defs>
</svg>
