<svg width="26" height="23" viewBox="0 0 26 23" fill="none" xmlns="http://www.w3.org/2000/svg">
<g id="Layer_1" clip-path="url(#clip0_55_78)">
<path id="Vector" d="M0 10.5511C0.0653217 10.105 0.111144 9.65594 0.197915 9.21365C0.853082 5.90807 2.64309 3.36926 5.53382 1.61459C7.62412 0.345661 9.92598 -0.196095 12.3595 0.0636772C16.7224 0.529143 19.8471 2.77922 21.7385 6.69898C22.2113 7.68013 22.4795 8.72598 22.6276 9.80273C22.6384 9.88481 22.6413 9.96786 22.6491 10.0693C22.03 10.0239 21.4285 9.98042 20.8181 9.936C20.2634 6.783 18.6079 4.38903 15.7435 2.88641C13.5596 1.74013 11.2353 1.51029 8.85256 2.15827C3.95928 3.489 0.991525 8.31942 2.0357 13.2242C2.413 14.9962 3.25049 16.5346 4.52572 17.8344C5.79414 19.1275 7.31311 19.9966 9.07972 20.4302C10.8532 20.8658 12.6139 20.7875 14.3718 20.2284C14.4927 20.831 14.2187 21.4674 14.6857 22.0362C14.2752 22.1347 13.9135 22.2351 13.546 22.3075C7.62997 23.4683 1.75296 19.7571 0.338308 13.9572C0.195965 13.3739 0.140393 12.7703 0.0438728 12.1754C0.0321734 12.103 0.0146243 12.0316 0 11.9591C0 11.4898 0 11.0205 0 10.5511Z" fill="url(#paint0_linear_55_78)"/>
<path id="Vector_2" d="M20.553 14.1301C19.2368 14.1262 17.9313 14.0132 16.6873 13.5622C16.2427 13.401 15.8108 13.1653 15.4267 12.8911C15.0104 12.5946 15.0357 12.2479 15.4228 11.908C15.8566 11.5266 16.3821 11.3093 16.9291 11.1625C19.3986 10.4971 21.8721 10.4865 24.3299 11.2127C24.7667 11.3421 25.1908 11.5642 25.573 11.8163C26.1453 12.1938 26.1316 12.6014 25.573 13.0089C24.912 13.4927 24.1418 13.7332 23.3482 13.8616C22.4259 14.0123 21.4909 14.0905 20.5617 14.2006C20.5588 14.1774 20.5559 14.1542 20.553 14.131V14.1301ZM21.6693 11.8143C21.524 11.7912 21.4109 11.7689 21.2969 11.7554C21.1204 11.7361 20.8942 11.7854 20.7772 11.6946C20.5296 11.5034 20.279 11.6038 20.0294 11.5913C19.9826 11.5893 19.8929 11.6202 19.8939 11.627C19.9212 11.8365 19.7369 11.7516 19.6531 11.7941C19.5644 11.8394 19.4532 11.8404 19.3674 11.8887C19.2943 11.9302 19.1997 12.0113 19.1988 12.077C19.1968 12.1465 19.2787 12.2508 19.3499 12.2827C19.5244 12.3609 19.7106 12.4314 19.8998 12.4584C20.3336 12.5222 20.7723 12.557 21.2081 12.6091C21.2881 12.6188 21.3641 12.6555 21.4421 12.6806C21.0239 12.8573 20.6124 12.836 20.2108 12.7453C19.9602 12.6893 19.7759 12.7723 19.5166 12.9258C19.8198 12.979 20.0596 13.0118 20.2956 13.0649C20.434 13.0958 20.5627 13.1837 20.7012 13.1972C20.942 13.2214 21.2598 13.3015 21.4109 13.1856C21.5854 13.0524 21.7648 13.0649 21.9306 12.9896C22.0066 12.9548 22.0914 12.9365 22.1646 12.8959C22.3245 12.8061 22.3332 12.6815 22.187 12.5821C22.0719 12.5038 21.9335 12.4372 21.797 12.415C21.3807 12.3493 20.9605 12.3107 20.5422 12.2566C20.3687 12.2344 20.1961 12.1967 20.0236 12.1668C20.0255 12.1369 20.0265 12.1069 20.0284 12.077C20.1133 12.0567 20.1981 12.0191 20.2839 12.0181C20.5871 12.0152 20.8942 12.0026 21.1945 12.0355C21.4022 12.0577 21.5269 11.9824 21.6712 11.8134L21.6693 11.8143Z" fill="url(#paint1_linear_55_78)"/>
<path id="Vector_3" d="M25.9883 16.6013C25.9883 17.1933 26.0244 17.7717 25.9688 18.3415C25.9493 18.5452 25.7524 18.7992 25.5642 18.9064C25.0923 19.1749 24.598 19.4298 24.0803 19.5882C22.7095 20.0063 21.291 20.0903 19.8637 20.0285C18.7961 19.9822 17.7344 19.8624 16.7292 19.4907C16.269 19.3207 15.841 19.0571 15.4169 18.804C15.1975 18.6737 15.1176 18.4409 15.1254 18.1725C15.14 17.6558 15.1293 17.1392 15.1293 16.6013C16.8228 17.5815 18.6664 17.8016 20.5471 17.8026C22.4307 17.8026 24.2773 17.5873 25.9883 16.6013Z" fill="url(#paint2_linear_55_78)"/>
<path id="Vector_4" d="M25.9892 19.5554C25.9892 20.1473 26.0243 20.719 25.9707 21.283C25.9512 21.4887 25.763 21.7446 25.5778 21.8547C25.1322 22.1183 24.6604 22.3617 24.169 22.5181C22.768 22.9652 21.3173 23.0425 19.8548 22.9826C18.6488 22.9334 17.4613 22.7711 16.3401 22.3057C16.0028 22.1656 15.6947 21.9474 15.3905 21.7398C15.1936 21.6055 15.1195 21.394 15.1244 21.1459C15.1361 20.6263 15.1283 20.1068 15.1283 19.5573C16.8218 20.5355 18.6693 20.7605 20.5568 20.7596C22.4394 20.7586 24.286 20.5433 25.9902 19.5554H25.9892Z" fill="url(#paint3_linear_55_78)"/>
<path id="Vector_5" d="M25.9893 13.6443C25.9893 14.2305 26.0097 14.7925 25.9766 15.3507C25.9668 15.5197 25.8382 15.7129 25.7085 15.8365C25.2581 16.2662 24.6789 16.468 24.093 16.6351C22.4365 17.1073 20.746 17.1711 19.0408 17.0127C18.138 16.9296 17.2459 16.7732 16.4074 16.4188C16.0545 16.2691 15.7279 16.0528 15.4071 15.8403C15.2014 15.7042 15.1186 15.4878 15.1254 15.229C15.139 14.7105 15.1293 14.1909 15.1293 13.6414C16.8189 14.6303 18.6723 14.8495 20.5549 14.8505C22.4336 14.8505 24.2841 14.6371 25.9893 13.6434V13.6443Z" fill="url(#paint4_linear_55_78)"/>
<path id="Vector_6" d="M10.4232 10.9095V10.5763C10.4232 8.81682 10.4232 7.05635 10.4232 5.29685C10.4232 4.49629 11.1135 4.08104 11.8447 4.44318C12.0806 4.56003 12.2181 4.75316 12.2425 5.01583C12.2503 5.09888 12.2493 5.1829 12.2493 5.26692C12.2493 7.44553 12.2493 9.62511 12.2493 11.8037C12.2493 12.4826 12.0065 12.7192 11.3143 12.7192C9.84215 12.7192 8.36997 12.7192 6.89779 12.7192C6.2514 12.7192 5.99109 12.4614 5.99109 11.823C5.99109 11.1702 6.25238 10.9095 6.91242 10.9095C7.97804 10.9095 9.04464 10.9095 10.1103 10.9095C10.2019 10.9095 10.2935 10.9095 10.4232 10.9095Z" fill="url(#paint5_linear_55_78)"/>
</g>
<defs>
<linearGradient id="paint0_linear_55_78" x1="11.3245" y1="0.000213623" x2="11.3245" y2="22.5199" gradientUnits="userSpaceOnUse">
<stop stop-color="#34D399"/>
<stop offset="1" stop-color="#10B981"/>
</linearGradient>
<linearGradient id="paint1_linear_55_78" x1="20.5603" y1="10.6656" x2="20.5603" y2="14.2006" gradientUnits="userSpaceOnUse">
<stop stop-color="#34D399"/>
<stop offset="1" stop-color="#10B981"/>
</linearGradient>
<linearGradient id="paint2_linear_55_78" x1="20.5623" y1="16.6013" x2="20.5623" y2="20.0467" gradientUnits="userSpaceOnUse">
<stop stop-color="#34D399"/>
<stop offset="1" stop-color="#10B981"/>
</linearGradient>
<linearGradient id="paint3_linear_55_78" x1="20.5623" y1="19.5554" x2="20.5623" y2="23.0003" gradientUnits="userSpaceOnUse">
<stop stop-color="#34D399"/>
<stop offset="1" stop-color="#10B981"/>
</linearGradient>
<linearGradient id="paint4_linear_55_78" x1="20.5603" y1="13.6414" x2="20.5603" y2="17.0904" gradientUnits="userSpaceOnUse">
<stop stop-color="#34D399"/>
<stop offset="1" stop-color="#10B981"/>
</linearGradient>
<linearGradient id="paint5_linear_55_78" x1="9.12021" y1="4.3112" x2="9.12021" y2="12.7192" gradientUnits="userSpaceOnUse">
<stop stop-color="#34D399"/>
<stop offset="1" stop-color="#10B981"/>
</linearGradient>
<clipPath id="clip0_55_78">
<rect width="26" height="23" fill="white"/>
</clipPath>
</defs>
</svg>
