<svg width="30" height="28" viewBox="0 0 30 28" fill="none" xmlns="http://www.w3.org/2000/svg">
<g id="Frame">
<g id="Group 62">
<path id="Subtract" fill-rule="evenodd" clip-rule="evenodd" d="M27.2666 5.48747C27.13 5.28606 26.9362 5.1302 26.7102 5.03999L15.3942 0.511968L15.3779 0.507098L14.9412 0.331757C14.6505 0.21524 14.326 0.21524 14.0353 0.331757L13.6002 0.507098L13.5839 0.511968L2.26468 5.03999C2.03896 5.13045 1.8455 5.28643 1.70921 5.48782C1.57292 5.68921 1.50006 5.9268 1.5 6.16997V20.233C1.50006 20.4762 1.57292 20.7137 1.70921 20.9151C1.8455 21.1165 2.03896 21.2725 2.26468 21.363L14.0353 26.0712C14.3255 26.1873 14.6493 26.1873 14.9396 26.0712L20.2096 23.9632C19.6666 22.9417 19.3589 21.776 19.3589 20.5385C19.3589 16.5036 22.6298 13.2326 26.6647 13.2326C26.9391 13.2326 27.21 13.2477 27.4765 13.2772V6.16997C27.4763 5.92661 27.4032 5.68889 27.2666 5.48747ZM8.4 7.4558L18.3912 3.4603L20.5765 4.33538L10.5853 8.33089L14.4882 9.8911L24.4794 5.89722L25.8529 6.44759V7.097L15.3 11.3182V24.1782L14.4882 24.5029L13.6765 24.1782V11.3166L3.12353 7.09538V6.44597L4.49704 5.89559L8.4 7.4558Z" fill="url(#paint0_linear_54_55)"/>
<path id="Vector" d="M29.8538 16.021C30.0487 15.826 30.0487 15.501 29.8538 15.3161L28.6839 14.1462C28.499 13.9513 28.174 13.9513 27.979 14.1462L27.0592 15.0611L28.9339 16.9358M21 21.1253V23H22.8747L28.404 17.4658L26.5292 15.591L21 21.1253Z" fill="url(#paint1_linear_54_55)"/>
</g>
</g>
<defs>
<linearGradient id="paint0_linear_54_55" x1="14.4882" y1="0.24437" x2="14.4882" y2="26.1583" gradientUnits="userSpaceOnUse">
<stop stop-color="#2DD4BF"/>
<stop offset="1" stop-color="#14B8A6"/>
</linearGradient>
<linearGradient id="paint1_linear_54_55" x1="25.5" y1="14" x2="25.5" y2="23" gradientUnits="userSpaceOnUse">
<stop stop-color="#2DD4BF"/>
<stop offset="1" stop-color="#14B8A6"/>
</linearGradient>
</defs>
</svg>
