<svg width="25" height="25" viewBox="0 0 25 25" fill="none" xmlns="http://www.w3.org/2000/svg">
<path d="M13.0023 18.9831L13.002 18.9833L10.3243 20.8C10.2563 20.8461 10.1801 20.8374 10.1243 20.7958C10.0698 20.7552 10.0515 20.6983 10.077 20.6376C10.6376 19.3066 9.59994 17.8867 8.12978 17.8867H7.5126C5.90162 17.8867 4.61346 16.6488 4.61346 15.1431V11.024C4.61346 9.64445 4.61423 8.66647 4.68004 7.90146C4.74489 7.1476 4.86793 6.6834 5.0648 6.3164C5.46212 5.57575 6.09717 4.9717 6.88063 4.59254C7.27062 4.4038 7.76326 4.28636 8.55928 4.22459C9.36628 4.16196 10.3975 4.16126 11.8494 4.16126H13.9006C15.3525 4.16126 16.3837 4.16196 17.1907 4.22459C17.9867 4.28636 18.4794 4.4038 18.8694 4.59254C19.6528 4.9717 20.2879 5.57575 20.6852 6.3164C20.8821 6.6834 21.0051 7.1476 21.07 7.90146C21.1358 8.66647 21.1365 9.64445 21.1365 11.024V13.6531C21.1365 13.9364 21.1363 14.0451 21.1319 14.1323C21.0312 16.1537 19.3255 17.7856 17.1747 17.8823C17.0822 17.8865 16.9515 17.8867 16.619 17.8867H16.6187L16.5317 17.8868L16.5307 17.8868C15.2889 17.8944 14.0783 18.2626 13.0614 18.9431L13.0607 18.9436L13.0023 18.9831ZM13.9351 2.3H11.8149L11.8066 2.3C10.4066 2.3 9.29729 2.29999 8.40305 2.36939C7.48873 2.44034 6.71489 2.58836 6.00793 2.9305C4.86153 3.48531 3.92754 4.37155 3.34154 5.46392C2.97949 6.13881 2.82305 6.87754 2.74816 7.74819C2.67499 8.59877 2.67499 9.65346 2.675 10.9821L2.675 10.9913L2.675 15.1431C2.675 17.6959 4.85069 19.748 7.5126 19.748H8.12978C8.25777 19.748 8.31296 19.8612 8.27995 19.9396C7.88657 20.8737 8.26182 21.7638 8.93524 22.2659C9.60733 22.767 10.5932 22.8967 11.4431 22.32L14.1205 20.5036L14.1208 20.5034L14.1701 20.47C14.1702 20.47 14.1703 20.4699 14.1704 20.4698C14.8641 20.0056 15.6918 19.7533 16.5425 19.7481C16.5426 19.7481 16.5428 19.7481 16.543 19.7481L16.619 19.748H16.6192H16.6482H16.6546C16.9411 19.748 17.1213 19.748 17.2654 19.7415C20.3978 19.6007 22.9188 17.218 23.0682 14.2213C23.075 14.0838 23.075 13.9273 23.075 13.6829V13.6768V10.9913V10.9821C23.075 9.65346 23.075 8.59877 23.0018 7.74819C22.927 6.87754 22.7705 6.13881 22.4085 5.46392C21.8225 4.37155 20.8885 3.48531 19.7421 2.9305C19.0351 2.58836 18.2613 2.44034 17.347 2.36939C16.4527 2.29999 15.3434 2.3 13.9434 2.3L13.9351 2.3ZM8.77244 12.1982C9.43951 12.1982 9.99808 11.682 9.99808 11.024C9.99808 10.3659 9.43951 9.84982 8.77244 9.84982C8.10536 9.84982 7.5468 10.3659 7.5468 11.024C7.5468 11.682 8.10536 12.1982 8.77244 12.1982ZM12.875 12.1982C13.5421 12.1982 14.1006 11.682 14.1006 11.024C14.1006 10.3659 13.5421 9.84982 12.875 9.84982C12.2079 9.84982 11.6494 10.3659 11.6494 11.024C11.6494 11.682 12.2079 12.1982 12.875 12.1982ZM16.9776 12.1982C17.6446 12.1982 18.2032 11.682 18.2032 11.024C18.2032 10.3659 17.6446 9.84982 16.9776 9.84982C16.3105 9.84982 15.7519 10.3659 15.7519 11.024C15.7519 11.682 16.3105 12.1982 16.9776 12.1982Z" fill="#5E5F60" stroke="#5E5F60" stroke-width="0.4"/>
</svg>
