<svg width="14" height="14" viewBox="0 0 14 14" fill="none" xmlns="http://www.w3.org/2000/svg">
<path id="Vector" d="M7.10716 0.9V0.901405C9.50247 0.946614 11.5096 2.61267 12.1754 4.87725C12.7734 5.25568 13.1143 5.95686 13.1143 6.76179C13.1143 7.53465 12.7961 8.20598 12.2427 8.59439C12.12 9.76256 11.663 10.6368 11.1709 11.2298C10.895 11.5625 10.6085 11.804 10.3712 11.9701C10.2509 12.0543 10.1369 12.1184 10.0404 12.1656L10.0399 12.1659C10.0238 12.1736 10.01 12.181 9.99503 12.189C9.99048 12.1915 9.98582 12.194 9.98094 12.1966C9.96089 12.2072 9.93818 12.2188 9.91206 12.229C9.85726 12.2504 9.79558 12.2622 9.70761 12.2622H8.86664C8.66016 12.7568 8.10763 13.1 7.46925 13.1C6.66616 13.1 5.98298 12.554 5.98298 11.8448C5.98298 11.1356 6.66616 10.5896 7.46925 10.5896C8.1076 10.5896 8.66018 10.9323 8.86666 11.4273H9.64019L9.64055 11.4271C9.6507 11.4219 9.66364 11.4153 9.67798 11.4084L7.10716 0.9ZM7.10716 0.9H7.00716C4.56785 0.9 2.51399 2.58122 1.83888 4.87722C1.24087 5.25525 0.9 5.95691 0.9 6.76179C0.9 7.3556 1.08101 7.89951 1.41724 8.29671C1.75482 8.6955 2.24484 8.9412 2.84836 8.9412C2.99743 8.9412 3.1404 8.88198 3.24581 8.77656C3.35123 8.67115 3.41045 8.52818 3.41045 8.37911V5.14448C3.41045 4.92168 3.27685 4.74361 3.09601 4.65476C3.77668 3.08381 5.27478 1.99599 7.00716 1.99599C8.73955 1.99599 10.2376 3.08381 10.9183 4.65519C10.7375 4.74391 10.6039 4.9216 10.6039 5.14448V8.37911C10.6039 8.52818 10.6631 8.67115 10.7685 8.77656C10.8739 8.88198 11.0169 8.9412 11.166 8.9412C11.2289 8.9412 11.288 8.93706 11.3449 8.93065C11.1861 9.7057 10.8513 10.2886 10.5114 10.6982L10.5111 10.6986C10.3277 10.9215 10.1157 11.1193 9.8806 11.2869L7.10716 0.9Z" fill="#E96E2B" stroke="#E96E2B" stroke-width="0.2"/>
</svg>
