<svg width="8" height="13" viewBox="0 0 8 13" fill="none" xmlns="http://www.w3.org/2000/svg">
<path id="Subtract" fill-rule="evenodd" clip-rule="evenodd" d="M1.11429 10.6364H6.68571V2.36364H1.11429V10.6364ZM1.11429 0H6.68571C7.29857 0 7.8 0.525909 7.8 1.18182V11.8182C7.8 12.1316 7.6826 12.4322 7.47363 12.6539C7.26466 12.8755 6.98124 13 6.68571 13H1.11429C0.818759 13 0.535336 12.8755 0.326367 12.6539C0.117398 12.4322 0 12.1316 0 11.8182V1.18182C0 0.525909 0.495857 0 1.11429 0ZM3.9 12.1333C4.13932 12.1333 4.33333 11.9393 4.33333 11.7C4.33333 11.4607 4.13932 11.2667 3.9 11.2667C3.66068 11.2667 3.46667 11.4607 3.46667 11.7C3.46667 11.9393 3.66068 12.1333 3.9 12.1333Z" fill="white"/>
</svg>
