<svg width="22" height="22" viewBox="0 0 22 22" fill="none" xmlns="http://www.w3.org/2000/svg">
<g id="Group 17843">
<circle id="Ellipse 310" cx="11" cy="11" r="11" fill="#E96E2B"/>
<path id="Subtract" fill-rule="evenodd" clip-rule="evenodd" d="M8.11429 15.6364H13.6857V7.36364H8.11429V15.6364ZM8.11429 5H13.6857C14.2986 5 14.8 5.52591 14.8 6.18182V16.8182C14.8 17.1316 14.6826 17.4322 14.4736 17.6539C14.2647 17.8755 13.9812 18 13.6857 18H8.11429C7.81876 18 7.53534 17.8755 7.32637 17.6539C7.1174 17.4322 7 17.1316 7 16.8182V6.18182C7 5.52591 7.49586 5 8.11429 5ZM10.9 17.1333C11.1393 17.1333 11.3333 16.9393 11.3333 16.7C11.3333 16.4607 11.1393 16.2667 10.9 16.2667C10.6607 16.2667 10.4667 16.4607 10.4667 16.7C10.4667 16.9393 10.6607 17.1333 10.9 17.1333Z" fill="white"/>
</g>
</svg>
