<svg width="25" height="25" viewBox="0 0 25 25" fill="none" xmlns="http://www.w3.org/2000/svg">
<path fill-rule="evenodd" clip-rule="evenodd" d="M2.125 13C2.125 7.47715 6.60215 3 12.125 3C17.6478 3 22.125 7.47715 22.125 13C22.125 15.8358 20.9437 18.3969 19.0483 20.2159C17.2521 21.9396 14.8117 23 12.125 23C9.43832 23 6.99786 21.9396 5.20175 20.2159C3.30629 18.3969 2.125 15.8358 2.125 13ZM17.7837 19.4824C17.3828 18.283 16.2495 17.4186 14.9157 17.4186H9.3343C8.00047 17.4186 6.86724 18.283 6.46627 19.4824C7.97944 20.8045 9.95814 21.6047 12.125 21.6047C14.2919 21.6047 16.2706 20.8045 17.7837 19.4824ZM12.125 5.7907C9.68467 5.7907 7.7064 7.76897 7.7064 10.2093C7.7064 12.6496 9.68467 14.6279 12.125 14.6279C14.5653 14.6279 16.5436 12.6496 16.5436 10.2093C16.5436 7.76897 14.5653 5.7907 12.125 5.7907Z" fill="#5E5F60"/>
</svg>
