<svg width="22" height="30" viewBox="0 0 22 30" fill="none" xmlns="http://www.w3.org/2000/svg">
<g id="Group 17846">
<path id="Vector" d="M13.4914 11.3547L8.81079 9.04099L12.1088 2.36901L16.7894 4.68269M17.7317 2.77641L13.0511 0.462735C12.5316 0.205917 11.9053 0.424147 11.6439 0.953139L7.40352 9.53139C7.27856 9.78418 7.25735 10.0754 7.34455 10.3409C7.43175 10.6064 7.62022 10.8245 7.86849 10.9473L12.5491 13.2609C12.7974 13.3837 13.0851 13.4009 13.349 13.309C13.6129 13.217 13.8314 13.0233 13.9564 12.7705L18.1967 4.19228C18.4582 3.66329 18.2466 3.03091 17.7317 2.77641Z" fill="url(#paint0_linear_301_507)"/>
<path id="Vector_2" d="M17.6 25.0729C16.379 25.0729 15.4 26.0519 15.4 27.2729C15.4 27.8564 15.6318 28.416 16.0444 28.8285C16.4569 29.2411 17.0165 29.4729 17.6 29.4729C18.1835 29.4729 18.7431 29.2411 19.1556 28.8285C19.5682 28.416 19.8 27.8564 19.8 27.2729C19.8 26.0519 18.81 25.0729 17.6 25.0729ZM0 7.4729V9.6729H2.2L6.16 18.0219L4.664 20.7169C4.499 21.0249 4.4 21.3879 4.4 21.7729C4.4 22.3564 4.63178 22.916 5.04436 23.3285C5.45694 23.7411 6.01652 23.9729 6.6 23.9729H19.8V21.7729H7.062C6.98907 21.7729 6.91912 21.7439 6.86755 21.6924C6.81597 21.6408 6.787 21.5708 6.787 21.4979C6.787 21.4429 6.798 21.3989 6.82 21.3659L7.81 19.5729H16.005C16.83 19.5729 17.556 19.1109 17.93 18.4399L21.868 11.3229C21.945 11.1469 22 10.9599 22 10.7729C22 10.4812 21.8841 10.2014 21.6778 9.99508C21.4715 9.78879 21.1917 9.6729 20.9 9.6729H4.631L3.597 7.4729M6.6 25.0729C5.379 25.0729 4.4 26.0519 4.4 27.2729C4.4 27.8564 4.63178 28.416 5.04436 28.8285C5.45694 29.2411 6.01652 29.4729 6.6 29.4729C7.18348 29.4729 7.74305 29.2411 8.15563 28.8285C8.56821 28.416 8.8 27.8564 8.8 27.2729C8.8 26.0519 7.81 25.0729 6.6 25.0729Z" fill="url(#paint1_linear_301_507)"/>
</g>
<defs>
<linearGradient id="paint0_linear_301_507" x1="15.3914" y1="1.61957" x2="10.2088" y2="12.1041" gradientUnits="userSpaceOnUse">
<stop stop-color="#FB923C"/>
<stop offset="1" stop-color="#F97316"/>
</linearGradient>
<linearGradient id="paint1_linear_301_507" x1="11" y1="7.4729" x2="11" y2="29.4729" gradientUnits="userSpaceOnUse">
<stop stop-color="#FB923C"/>
<stop offset="1" stop-color="#F97316"/>
</linearGradient>
</defs>
</svg>
