<svg width="21" height="21" viewBox="0 0 21 21" fill="none" xmlns="http://www.w3.org/2000/svg">
<path d="M9.6228 0.495534L9.62282 0.495528C10.1057 0.301491 10.6443 0.301491 11.1272 0.495528L11.1272 0.495534L20.0384 4.07774L20.0385 4.07778C20.1823 4.13567 20.3054 4.23543 20.392 4.3641C20.4787 4.49276 20.525 4.64447 20.525 4.79969V4.79972V15.6795V15.6796C20.5248 15.9604 20.4409 16.2347 20.2841 16.4673C20.1272 16.6998 19.9045 16.8799 19.6447 16.9843C19.6447 16.9843 19.6447 16.9843 19.6446 16.9843L10.6635 20.5941L9.6228 0.495534ZM9.6228 0.495534L0.711553 4.07774L0.711468 4.07778C0.567716 4.13567 0.444625 4.23543 0.357968 4.3641C0.271318 4.49276 0.225036 4.64447 0.225 4.79969V4.79972L0.225 15.6795L0.225 15.6796M9.6228 0.495534L0.225 15.6796M0.225 15.6796C0.225289 15.9606 0.309383 16.2351 0.466511 16.4676C0.623645 16.7002 0.846633 16.8802 1.10677 16.9844M0.225 15.6796L1.10677 16.9844M1.10677 16.9844L10.0865 20.5941C10.0865 20.5941 10.0865 20.5941 10.0866 20.5941C10.2717 20.6686 10.4783 20.6686 10.6634 20.5941L1.10677 16.9844ZM10.5515 1.94071L10.5516 1.94075L12.9777 2.91567L5.68749 5.84512L3.08484 4.79968L10.1984 1.94075L10.1985 1.94071C10.3118 1.89509 10.4382 1.89509 10.5515 1.94071ZM17.6651 4.79975L10.375 7.72917L7.77237 6.68374L15.0625 3.75432L17.6651 4.79975ZM11.15 18.722V9.09499L18.975 5.94988V15.5769L11.15 18.722ZM1.775 5.94985L9.6 9.09375V18.7232L1.775 15.5781V5.94985Z" fill="#5E5F60" stroke="#5E5F60" stroke-width="0.3"/>
</svg>
